<?xml version="1.0" encoding="UTF-8" standalone="no"?>
<!DOCTYPE svg PUBLIC "-//W3C//DTD SVG 1.1//EN"
 "http://www.w3.org/Graphics/SVG/1.1/DTD/svg11.dtd">
<!-- Generated by graphviz version 2.40.1 (20161225.0304)
 -->
<!-- Title: G Pages: 1 -->
<svg width="1033pt" height="774pt"
 viewBox="0.00 0.00 1032.91 774.00" xmlns="http://www.w3.org/2000/svg" xmlns:xlink="http://www.w3.org/1999/xlink">
<g id="graph0" class="graph" transform="scale(1 1) rotate(0) translate(4 770)">
<title>G</title>
<polygon fill="#ffffff" stroke="transparent" points="-4,4 -4,-770 1028.9139,-770 1028.9139,4 -4,4"/>
<g id="clust1" class="cluster">
<title>cluster_Global</title>
<path fill="none" stroke="#c0c0c0" d="M514.9403,-206C514.9403,-206 1004.9139,-206 1004.9139,-206 1010.9139,-206 1016.9139,-212 1016.9139,-218 1016.9139,-218 1016.9139,-746 1016.9139,-746 1016.9139,-752 1010.9139,-758 1004.9139,-758 1004.9139,-758 514.9403,-758 514.9403,-758 508.9403,-758 502.9403,-752 502.9403,-746 502.9403,-746 502.9403,-218 502.9403,-218 502.9403,-212 508.9403,-206 514.9403,-206"/>
<text text-anchor="middle" x="759.9271" y="-745.2" font-family="Times,serif" font-size="11.00" fill="#c0c0c0">Global</text>
</g>
<g id="clust2" class="cluster">
<title>cluster_\AustinHeap</title>
<path fill="none" stroke="#c0c0c0" d="M522.9403,-214C522.9403,-214 996.9139,-214 996.9139,-214 1002.9139,-214 1008.9139,-220 1008.9139,-226 1008.9139,-226 1008.9139,-719 1008.9139,-719 1008.9139,-725 1002.9139,-731 996.9139,-731 996.9139,-731 522.9403,-731 522.9403,-731 516.9403,-731 510.9403,-725 510.9403,-719 510.9403,-719 510.9403,-226 510.9403,-226 510.9403,-220 516.9403,-214 522.9403,-214"/>
<text text-anchor="middle" x="759.9271" y="-718.2" font-family="Times,serif" font-size="11.00" fill="#c0c0c0">AustinHeap</text>
</g>
<g id="clust3" class="cluster">
<title>cluster_\AustinHeap\Database</title>
<path fill="none" stroke="#c0c0c0" d="M530.9403,-222C530.9403,-222 988.9139,-222 988.9139,-222 994.9139,-222 1000.9139,-228 1000.9139,-234 1000.9139,-234 1000.9139,-692 1000.9139,-692 1000.9139,-698 994.9139,-704 988.9139,-704 988.9139,-704 530.9403,-704 530.9403,-704 524.9403,-704 518.9403,-698 518.9403,-692 518.9403,-692 518.9403,-234 518.9403,-234 518.9403,-228 524.9403,-222 530.9403,-222"/>
<text text-anchor="middle" x="759.9271" y="-691.2" font-family="Times,serif" font-size="11.00" fill="#c0c0c0">Database</text>
</g>
<g id="clust4" class="cluster">
<title>cluster_\AustinHeap\Database\InfluxDb</title>
<path fill="none" stroke="#c0c0c0" d="M538.9403,-230C538.9403,-230 980.9139,-230 980.9139,-230 986.9139,-230 992.9139,-236 992.9139,-242 992.9139,-242 992.9139,-665 992.9139,-665 992.9139,-671 986.9139,-677 980.9139,-677 980.9139,-677 538.9403,-677 538.9403,-677 532.9403,-677 526.9403,-671 526.9403,-665 526.9403,-665 526.9403,-242 526.9403,-242 526.9403,-236 532.9403,-230 538.9403,-230"/>
<text text-anchor="middle" x="759.9271" y="-664.2" font-family="Times,serif" font-size="11.00" fill="#c0c0c0">InfluxDb</text>
</g>
<g id="clust5" class="cluster">
<title>cluster_\AustinHeap\Database\InfluxDb\Jobs</title>
<path fill="none" stroke="#c0c0c0" d="M546.9403,-471C546.9403,-471 944.608,-471 944.608,-471 950.608,-471 956.608,-477 956.608,-483 956.608,-483 956.608,-638 956.608,-638 956.608,-644 950.608,-650 944.608,-650 944.608,-650 546.9403,-650 546.9403,-650 540.9403,-650 534.9403,-644 534.9403,-638 534.9403,-638 534.9403,-483 534.9403,-483 534.9403,-477 540.9403,-471 546.9403,-471"/>
<text text-anchor="middle" x="745.7742" y="-637.2" font-family="Times,serif" font-size="11.00" fill="#c0c0c0">Jobs</text>
</g>
<g id="clust6" class="cluster">
<title>cluster_\AustinHeap\Database\InfluxDb\Logs</title>
<path fill="none" stroke="#c0c0c0" d="M850.794,-338C850.794,-338 951.2091,-338 951.2091,-338 957.2091,-338 963.2091,-344 963.2091,-350 963.2091,-350 963.2091,-451 963.2091,-451 963.2091,-457 957.2091,-463 951.2091,-463 951.2091,-463 850.794,-463 850.794,-463 844.794,-463 838.794,-457 838.794,-451 838.794,-451 838.794,-350 838.794,-350 838.794,-344 844.794,-338 850.794,-338"/>
<text text-anchor="middle" x="901.0016" y="-450.2" font-family="Times,serif" font-size="11.00" fill="#c0c0c0">Logs</text>
</g>
<!-- \\AustinHeap\\Database\\InfluxDb\\Jobs\\WritePoints -->
<g id="node1" class="node">
<title>\\AustinHeap\\Database\\InfluxDb\\Jobs\\WritePoints</title>
<polygon fill="none" stroke="#000000" points="945.1142,-623 856.8889,-623 856.8889,-587 945.1142,-587 945.1142,-623"/>
<text text-anchor="middle" x="901.0016" y="-601.7" font-family="Courier,monospace" font-size="11.00" fill="#000000">WritePoints</text>
</g>
<!-- \\AustinHeap\\Database\\InfluxDb\\Jobs\\Job -->
<g id="node3" class="node">
<title>\\AustinHeap\\Database\\InfluxDb\\Jobs\\Job</title>
<polygon fill="none" stroke="#000000" points="596.9403,-569 542.9403,-569 542.9403,-533 596.9403,-533 596.9403,-569"/>
<text text-anchor="middle" x="569.9403" y="-547.7" font-family="Courier,monospace" font-size="11.00" fill="#000000">Job</text>
</g>
<!-- \\AustinHeap\\Database\\InfluxDb\\Jobs\\WritePoints&#45;&gt;\\AustinHeap\\Database\\InfluxDb\\Jobs\\Job -->
<g id="edge2" class="edge">
<title>\\AustinHeap\\Database\\InfluxDb\\Jobs\\WritePoints&#45;&gt;\\AustinHeap\\Database\\InfluxDb\\Jobs\\Job</title>
<path fill="none" stroke="#000000" d="M856.6967,-597.7734C790.9062,-587.0422 668.56,-567.086 607.1414,-557.0679"/>
<polygon fill="none" stroke="#000000" points="607.5495,-553.5883 597.1165,-555.4328 606.4226,-560.497 607.5495,-553.5883"/>
</g>
<!-- \\AustinHeap\\Database\\InfluxDb\\Jobs\\WritePayload -->
<g id="node2" class="node">
<title>\\AustinHeap\\Database\\InfluxDb\\Jobs\\WritePayload</title>
<polygon fill="none" stroke="#000000" points="948.7147,-569 853.2884,-569 853.2884,-533 948.7147,-533 948.7147,-569"/>
<text text-anchor="middle" x="901.0016" y="-547.7" font-family="Courier,monospace" font-size="11.00" fill="#000000">WritePayload</text>
</g>
<!-- \\AustinHeap\\Database\\InfluxDb\\Jobs\\WritePayload&#45;&gt;\\AustinHeap\\Database\\InfluxDb\\Jobs\\Job -->
<g id="edge3" class="edge">
<title>\\AustinHeap\\Database\\InfluxDb\\Jobs\\WritePayload&#45;&gt;\\AustinHeap\\Database\\InfluxDb\\Jobs\\Job</title>
<path fill="none" stroke="#000000" d="M853.216,-551C786.8296,-551 668.0561,-551 607.5707,-551"/>
<polygon fill="none" stroke="#000000" points="607.3301,-547.5001 597.3301,-551 607.3301,-554.5001 607.3301,-547.5001"/>
</g>
<!-- \\Illuminate\\Contracts\\Queue\\ShouldQueue -->
<g id="node10" class="node">
<title>\\Illuminate\\Contracts\\Queue\\ShouldQueue</title>
<ellipse fill="none" stroke="#000000" cx="161.3957" cy="-551" rx="161.2915" ry="18"/>
<text text-anchor="middle" x="161.3957" y="-546.8" font-family="Times,serif" font-size="14.00" fill="#c0c0c0">\Illuminate\Contracts\Queue\ShouldQueue</text>
</g>
<!-- \\AustinHeap\\Database\\InfluxDb\\Jobs\\Job&#45;&gt;\\Illuminate\\Contracts\\Queue\\ShouldQueue -->
<g id="edge4" class="edge">
<title>\\AustinHeap\\Database\\InfluxDb\\Jobs\\Job&#45;&gt;\\Illuminate\\Contracts\\Queue\\ShouldQueue</title>
<path fill="none" stroke="#000000" stroke-dasharray="1,5" d="M542.8182,-551C499.9206,-551 413.0559,-551 333.0455,-551"/>
<polygon fill="none" stroke="#000000" points="332.821,-547.5001 322.821,-551 332.8209,-554.5001 332.821,-547.5001"/>
</g>
<!-- \\AustinHeap\\Database\\InfluxDb\\Jobs\\Write -->
<g id="node4" class="node">
<title>\\AustinHeap\\Database\\InfluxDb\\Jobs\\Write</title>
<polygon fill="none" stroke="#000000" points="928.0016,-515 874.0016,-515 874.0016,-479 928.0016,-479 928.0016,-515"/>
<text text-anchor="middle" x="901.0016" y="-493.7" font-family="Courier,monospace" font-size="11.00" fill="#000000">Write</text>
</g>
<!-- \\AustinHeap\\Database\\InfluxDb\\Jobs\\Write&#45;&gt;\\AustinHeap\\Database\\InfluxDb\\Jobs\\Job -->
<g id="edge6" class="edge">
<title>\\AustinHeap\\Database\\InfluxDb\\Jobs\\Write&#45;&gt;\\AustinHeap\\Database\\InfluxDb\\Jobs\\Job</title>
<path fill="none" stroke="#000000" d="M873.9094,-501.419C814.8353,-511.0547 674.3537,-533.9689 607.0862,-544.9411"/>
<polygon fill="none" stroke="#000000" points="606.2486,-541.5314 596.9425,-546.5956 607.3755,-548.4401 606.2486,-541.5314"/>
</g>
<!-- \\AustinHeap\\Database\\InfluxDb\\Logs\\Formatter -->
<g id="node5" class="node">
<title>\\AustinHeap\\Database\\InfluxDb\\Logs\\Formatter</title>
<polygon fill="none" stroke="#000000" points="938.9123,-436 863.0908,-436 863.0908,-400 938.9123,-400 938.9123,-436"/>
<text text-anchor="middle" x="901.0016" y="-414.7" font-family="Courier,monospace" font-size="11.00" fill="#000000">Formatter</text>
</g>
<!-- \\Monolog\\Formatter\\NormalizerFormatter -->
<g id="node11" class="node">
<title>\\Monolog\\Formatter\\NormalizerFormatter</title>
<ellipse fill="none" stroke="#000000" cx="569.9403" cy="-180" rx="159.8379" ry="18"/>
<text text-anchor="middle" x="569.9403" y="-175.8" font-family="Times,serif" font-size="14.00" fill="#c0c0c0">\Monolog\Formatter\NormalizerFormatter</text>
</g>
<!-- \\AustinHeap\\Database\\InfluxDb\\Logs\\Formatter&#45;&gt;\\Monolog\\Formatter\\NormalizerFormatter -->
<g id="edge5" class="edge">
<title>\\AustinHeap\\Database\\InfluxDb\\Logs\\Formatter&#45;&gt;\\Monolog\\Formatter\\NormalizerFormatter</title>
<path fill="none" stroke="#000000" d="M862.9252,-409.1954C848.0761,-404.8924 831.2548,-398.9047 817.0892,-391 724.1373,-339.1308 633.953,-249.1083 592.9454,-205.344"/>
<polygon fill="none" stroke="#000000" points="595.4723,-202.9218 586.1008,-197.9796 590.3449,-207.6873 595.4723,-202.9218"/>
</g>
<!-- \\AustinHeap\\Database\\InfluxDb\\Logs\\MonologHandler -->
<g id="node6" class="node">
<title>\\AustinHeap\\Database\\InfluxDb\\Logs\\MonologHandler</title>
<polygon fill="none" stroke="#000000" points="955.4174,-382 846.5857,-382 846.5857,-346 955.4174,-346 955.4174,-382"/>
<text text-anchor="middle" x="901.0016" y="-360.7" font-family="Courier,monospace" font-size="11.00" fill="#000000">MonologHandler</text>
</g>
<!-- \\Monolog\\Handler\\AbstractProcessingHandler -->
<g id="node13" class="node">
<title>\\Monolog\\Handler\\AbstractProcessingHandler</title>
<ellipse fill="none" stroke="#000000" cx="569.9403" cy="-126" rx="175.2979" ry="18"/>
<text text-anchor="middle" x="569.9403" y="-121.8" font-family="Times,serif" font-size="14.00" fill="#c0c0c0">\Monolog\Handler\AbstractProcessingHandler</text>
</g>
<!-- \\AustinHeap\\Database\\InfluxDb\\Logs\\MonologHandler&#45;&gt;\\Monolog\\Handler\\AbstractProcessingHandler -->
<g id="edge8" class="edge">
<title>\\AustinHeap\\Database\\InfluxDb\\Logs\\MonologHandler&#45;&gt;\\Monolog\\Handler\\AbstractProcessingHandler</title>
<path fill="none" stroke="#000000" d="M846.6445,-357.7416C835.892,-354.4248 825.382,-349.4455 817.0892,-342 750.2031,-281.948 814.9909,-209.5134 745.0892,-153 738.9489,-148.0357 732.2794,-143.7954 725.2486,-140.1839"/>
<polygon fill="none" stroke="#000000" points="726.7038,-137.0006 716.1624,-135.9383 723.7405,-143.3425 726.7038,-137.0006"/>
</g>
<!-- \\AustinHeap\\Database\\InfluxDb\\InfluxDbServiceProvider -->
<g id="node7" class="node">
<title>\\AustinHeap\\Database\\InfluxDb\\InfluxDbServiceProvider</title>
<polygon fill="none" stroke="#000000" points="984.8264,-328 817.1768,-328 817.1768,-292 984.8264,-292 984.8264,-328"/>
<text text-anchor="middle" x="901.0016" y="-306.7" font-family="Courier,monospace" font-size="11.00" fill="#000000">InfluxDbServiceProvider</text>
</g>
<!-- \\Illuminate\\Support\\ServiceProvider -->
<g id="node9" class="node">
<title>\\Illuminate\\Support\\ServiceProvider</title>
<ellipse fill="none" stroke="#000000" cx="569.9403" cy="-72" rx="138.6071" ry="18"/>
<text text-anchor="middle" x="569.9403" y="-67.8" font-family="Times,serif" font-size="14.00" fill="#c0c0c0">\Illuminate\Support\ServiceProvider</text>
</g>
<!-- \\AustinHeap\\Database\\InfluxDb\\InfluxDbServiceProvider&#45;&gt;\\Illuminate\\Support\\ServiceProvider -->
<g id="edge1" class="edge">
<title>\\AustinHeap\\Database\\InfluxDb\\InfluxDbServiceProvider&#45;&gt;\\Illuminate\\Support\\ServiceProvider</title>
<path fill="none" stroke="#000000" d="M828.89,-291.8648C824.6443,-289.2921 820.6572,-286.3544 817.0892,-283 753.1088,-222.8493 813.6267,-153.9018 745.0892,-99 735.3312,-91.1834 724.2579,-85.168 712.5326,-80.579"/>
<polygon fill="none" stroke="#000000" points="713.5968,-77.2429 703.002,-77.1974 711.2559,-83.8399 713.5968,-77.2429"/>
</g>
<!-- \\AustinHeap\\Database\\InfluxDb\\InfluxDbFacade -->
<g id="node8" class="node">
<title>\\AustinHeap\\Database\\InfluxDb\\InfluxDbFacade</title>
<polygon fill="none" stroke="#000000" points="955.4174,-274 846.5857,-274 846.5857,-238 955.4174,-238 955.4174,-274"/>
<text text-anchor="middle" x="901.0016" y="-252.7" font-family="Courier,monospace" font-size="11.00" fill="#000000">InfluxDbFacade</text>
</g>
<!-- \\Illuminate\\Support\\Facades\\Facade -->
<g id="node12" class="node">
<title>\\Illuminate\\Support\\Facades\\Facade</title>
<ellipse fill="none" stroke="#000000" cx="569.9403" cy="-18" rx="137.6208" ry="18"/>
<text text-anchor="middle" x="569.9403" y="-13.8" font-family="Times,serif" font-size="14.00" fill="#c0c0c0">\Illuminate\Support\Facades\Facade</text>
</g>
<!-- \\AustinHeap\\Database\\InfluxDb\\InfluxDbFacade&#45;&gt;\\Illuminate\\Support\\Facades\\Facade -->
<g id="edge7" class="edge">
<title>\\AustinHeap\\Database\\InfluxDb\\InfluxDbFacade&#45;&gt;\\Illuminate\\Support\\Facades\\Facade</title>
<path fill="none" stroke="#000000" d="M893.4908,-237.8379C875.1261,-195.9378 823.6338,-92.4765 745.0892,-45 733.0018,-37.6937 719.6174,-32.1396 705.7897,-27.9442"/>
<polygon fill="none" stroke="#000000" points="706.7295,-24.5727 696.1564,-25.2518 704.8453,-31.3144 706.7295,-24.5727"/>
</g>
</g>
</svg>
